<?xml version="1.0" standalone="no"?>
<!DOCTYPE svg PUBLIC "-//W3C//DTD SVG 20010904//EN"
 "http://www.w3.org/TR/2001/REC-SVG-20010904/DTD/svg10.dtd">
<svg version="1.0" xmlns="http://www.w3.org/2000/svg"
 width="485.000000pt" height="485.000000pt" viewBox="0 0 485.000000 485.000000"
 preserveAspectRatio="xMidYMid meet">
<metadata>
Created by potrace 1.14, written by Peter Selinger 2001-2017
</metadata>
<g transform="translate(0.000000,485.000000) scale(0.100000,-0.100000)"
fill="#000000" stroke="none">
<path d="M2290 4847 c-3 -2 -43 -8 -90 -12 -47 -4 -98 -8 -115 -10 -16 -1 -55
-7 -85 -13 -30 -7 -70 -14 -89 -17 -19 -3 -37 -8 -41 -10 -3 -2 -17 -6 -31 -8
-13 -3 -51 -13 -84 -23 -33 -10 -62 -18 -65 -19 -27 -5 -70 -21 -145 -54 -27
-12 -57 -23 -66 -24 -10 -2 -24 -9 -33 -16 -9 -7 -16 -10 -16 -7 0 4 -12 -1
-27 -12 -16 -10 -34 -17 -40 -15 -7 3 -13 0 -13 -5 0 -6 -10 -14 -22 -18 -13
-3 -29 -11 -37 -17 -7 -6 -20 -12 -29 -14 -9 -1 -18 -7 -20 -12 -2 -6 -10 -11
-18 -11 -8 0 -14 -4 -14 -10 0 -5 -5 -10 -12 -10 -6 0 -20 -8 -31 -17 -15 -13
-18 -14 -12 -3 5 8 -8 0 -28 -17 -21 -18 -42 -33 -47 -33 -5 0 -15 -6 -22 -12
-19 -18 -76 -58 -82 -58 -3 0 -18 -12 -34 -27 -46 -44 -71 -63 -83 -63 -5 0
-8 -4 -4 -9 3 -5 -3 -12 -12 -15 -10 -3 -55 -44 -100 -89 -46 -46 -83 -82 -83
-79 0 2 -27 -29 -61 -70 -33 -40 -71 -85 -83 -100 -13 -15 -26 -34 -29 -43 -4
-8 -11 -15 -17 -15 -5 0 -10 -4 -10 -9 0 -5 -25 -46 -56 -90 -30 -45 -53 -81
-49 -81 3 0 -3 -10 -15 -22 -11 -12 -20 -28 -20 -35 0 -7 -5 -13 -12 -13 -6 0
-8 -3 -5 -6 4 -4 -2 -19 -13 -34 -11 -15 -17 -30 -13 -34 3 -3 1 -6 -6 -6 -7
0 -9 -5 -6 -10 3 -6 0 -13 -8 -16 -7 -2 -14 -10 -14 -17 0 -7 -13 -39 -29 -72
-15 -33 -28 -65 -29 -71 0 -6 -6 -19 -14 -28 -7 -9 -10 -16 -6 -16 4 0 2 -6
-4 -14 -6 -8 -11 -18 -9 -22 1 -5 -4 -20 -12 -34 -7 -14 -13 -27 -13 -30 0 -3
-1 -9 -3 -15 -9 -26 -46 -162 -48 -175 -1 -8 -5 -24 -9 -35 -8 -25 -19 -82
-22 -115 -1 -14 -5 -36 -8 -50 -16 -64 -19 -122 -22 -345 -3 -245 10 -392 46
-540 6 -22 12 -49 13 -60 2 -11 6 -27 9 -35 16 -45 27 -84 23 -88 -3 -2 2 -11
10 -19 8 -8 12 -18 9 -23 -3 -4 1 -23 9 -41 7 -19 17 -43 21 -54 4 -11 9 -25
10 -30 2 -6 13 -33 26 -60 13 -28 22 -54 20 -59 -1 -5 2 -12 6 -15 4 -3 28
-46 53 -96 25 -49 48 -92 53 -93 4 -2 5 -8 1 -13 -3 -5 0 -9 5 -9 6 0 11 -7
11 -15 0 -8 5 -15 11 -15 5 0 8 -4 5 -9 -4 -5 -3 -11 2 -13 4 -1 23 -28 41
-58 19 -30 36 -57 40 -60 3 -3 22 -27 41 -55 19 -27 39 -55 45 -61 6 -6 27
-31 46 -54 18 -24 50 -59 69 -80 19 -20 47 -50 61 -66 37 -42 149 -141 224
-199 21 -16 47 -38 57 -48 10 -9 18 -14 18 -10 0 5 4 3 8 -2 13 -18 76 -62
100 -69 12 -4 22 -11 22 -14 0 -4 17 -16 38 -27 20 -11 39 -22 42 -26 3 -3 28
-16 55 -30 28 -13 53 -28 56 -32 3 -5 9 -8 13 -8 3 0 43 -17 88 -38 46 -21 96
-42 111 -45 17 -4 25 -11 21 -18 -4 -6 -3 -8 4 -4 6 3 34 -2 64 -13 52 -19
181 -58 222 -67 12 -3 32 -7 46 -10 14 -2 32 -7 40 -10 8 -4 29 -8 45 -9 17
-2 59 -8 95 -15 91 -16 216 -25 350 -25 124 0 305 11 318 19 4 2 35 8 67 11
71 9 78 10 130 23 22 6 54 13 70 16 17 2 65 16 107 29 42 14 80 22 83 19 3 -3
5 -1 5 5 0 9 32 23 65 28 12 1 32 10 95 38 25 12 47 21 50 22 3 0 41 18 85 40
44 22 83 38 88 37 4 -1 7 3 7 8 0 6 7 10 15 10 8 0 15 5 15 10 0 6 5 10 11 10
13 0 146 85 177 113 12 11 22 17 22 14 0 -4 8 0 18 7 9 8 44 36 77 63 84 67
119 98 196 175 36 37 70 64 74 60 5 -4 5 -2 1 5 -3 6 2 18 12 25 10 7 37 36
59 65 22 29 44 49 48 45 4 -4 5 -2 3 4 -2 6 9 26 25 43 15 17 27 35 27 40 0 6
8 15 18 20 9 6 13 11 7 11 -6 0 -5 3 1 8 6 4 30 36 53 72 22 36 45 70 51 77 5
7 10 16 10 21 0 5 7 15 15 22 8 7 15 20 15 30 0 10 7 23 15 30 8 7 12 16 10
21 -3 4 3 12 12 18 10 6 14 11 10 11 -5 0 1 17 12 38 11 20 29 60 41 87 11 28
25 58 30 67 6 10 10 25 10 33 0 8 5 15 10 15 6 0 10 8 10 17 0 14 27 106 48
163 3 8 6 20 7 25 2 6 10 39 18 75 28 114 32 135 42 220 2 25 9 64 13 87 11
52 12 460 1 516 -4 23 -10 65 -14 92 -8 62 -11 76 -25 145 -6 30 -13 66 -16
80 -3 14 -11 42 -19 63 -8 20 -13 37 -10 37 2 0 -3 16 -11 35 -8 19 -15 38
-15 42 -2 8 -5 19 -14 48 -2 8 -4 17 -5 20 0 3 -7 19 -15 35 -8 16 -15 32 -15
35 0 3 -12 31 -26 62 -15 31 -27 62 -28 67 -1 6 -18 42 -39 79 -20 37 -37 70
-37 73 0 7 -80 133 -125 196 -22 31 -47 66 -55 78 -8 13 -25 33 -37 46 -13 13
-23 26 -23 30 0 4 -7 14 -15 23 -9 9 -40 42 -71 74 l-55 58 6 51 c4 27 13 68
21 91 8 22 12 42 9 45 -2 2 0 12 5 22 8 15 5 16 -18 12 -15 -2 -31 -8 -37 -12
-15 -11 -124 -50 -139 -50 -7 0 -26 11 -42 25 -55 48 -133 105 -144 105 -5 0
-10 5 -10 10 0 6 -7 10 -15 10 -8 0 -15 3 -15 8 0 4 -16 16 -35 26 -19 11 -35
23 -35 28 0 5 -4 6 -10 3 -5 -3 -10 -1 -10 4 0 6 -7 11 -15 11 -8 0 -15 5 -15
11 0 5 -4 8 -8 5 -5 -3 -19 4 -30 15 -12 11 -22 17 -22 14 0 -4 -12 2 -27 13
-16 11 -31 20 -35 21 -17 3 -103 47 -110 56 -4 5 -10 6 -14 2 -4 -4 -14 -1
-23 7 -13 11 -66 32 -101 41 -3 1 -18 8 -35 15 -16 8 -34 14 -40 15 -5 0 -16
4 -22 8 -7 5 -22 10 -33 13 -11 2 -29 6 -40 8 -11 3 -24 7 -28 10 -5 3 -19 7
-33 10 -13 3 -42 10 -64 16 -62 17 -77 20 -125 26 -25 3 -48 8 -51 10 -4 2
-33 6 -65 9 -33 4 -72 8 -89 11 -47 7 -369 17 -375 11z"/>
</g>
</svg>
